<svg width="737" height="685" viewBox="0 0 737 685" fill="none" xmlns="http://www.w3.org/2000/svg">
<g clip-path="url(#clip0_534_1310)">
<g opacity="0.46">
<path opacity="0.46" d="M570.588 100.912C634.701 175.366 666.358 282.456 625.518 392.335C615.292 419.836 595.822 444.899 571.232 454.664C541.338 466.544 510.891 454.526 480.966 449.743C386.974 434.751 288.859 492.864 192.43 495.485C153.26 496.558 113.447 487.606 84.4264 460.918C48.7676 428.144 33.8663 371.411 39.4006 316.333C48.0011 230.904 101.505 150.563 159.362 93.6767C213.739 40.2238 282.405 5.94772 350.963 0.597837C431.096 -5.61048 513.651 34.7819 570.588 100.912Z" fill="#D1C7FF"/>
</g>
<path d="M276.516 241.496L290.314 246.095L292 285.261L291.862 287.484H313.294C313.294 287.484 307.745 231.041 307.162 229.233C307.162 229.233 275.244 221.905 274.692 221.307C274.646 221.369 263.777 216.724 262.642 218.226C260.864 220.587 246.085 262.451 238.834 287.484H259.638L276.516 241.496Z" fill="#373C7A"/>
<g opacity="0.1">
<path opacity="0.1" d="M397.903 572.101C585.18 572.101 736.999 561.984 736.999 549.505C736.999 537.026 585.18 526.91 397.903 526.91C210.625 526.91 58.8066 537.026 58.8066 549.505C58.8066 561.984 210.625 572.101 397.903 572.101Z" fill="black"/>
</g>
<path d="M502.352 174.584C499.363 174.584 496.45 174.921 493.644 175.55C485.212 154.258 464.424 139.204 440.125 139.204C415.826 139.204 395.054 154.258 386.606 175.55C383.801 174.921 380.888 174.584 377.899 174.584C355.884 174.584 338.055 192.427 338.055 214.425C338.055 215.682 338.116 216.908 338.239 218.134C338.131 218.226 338.055 218.334 338.055 218.426C338.055 221.231 383.709 223.515 440.033 223.515C496.358 223.515 542.012 221.246 542.012 218.426C542.15 217.107 542.211 215.774 542.211 214.425C542.196 192.427 524.351 174.584 502.352 174.584Z" fill="#EAE0FF"/>
<path d="M164.297 225.891C161.308 225.891 158.395 226.228 155.59 226.857C147.158 205.564 126.37 190.511 102.071 190.511C77.7718 190.511 56.9989 205.564 48.5518 226.857C45.7463 226.228 42.8335 225.891 39.8441 225.891C17.8447 225.891 0 243.734 0 265.731C0 266.988 0.0613221 268.215 0.183966 269.441C0.0613221 269.533 0 269.64 0 269.732C0 272.538 45.6543 274.822 101.979 274.822C158.303 274.822 203.957 272.553 203.957 269.732C204.095 268.414 204.157 267.08 204.157 265.731C204.157 243.734 186.312 225.891 164.297 225.891Z" fill="#EAE0FF"/>
<path d="M674.235 259.554C671.245 259.554 668.333 259.891 665.527 260.519C657.095 239.227 636.307 224.174 612.008 224.174C587.709 224.174 566.936 239.227 558.489 260.519C555.684 259.891 552.771 259.554 549.782 259.554C527.767 259.554 509.938 277.397 509.938 299.394C509.938 300.651 509.999 301.878 510.121 303.104C510.014 303.196 509.938 303.303 509.938 303.395C509.938 306.2 555.592 308.485 611.916 308.485C668.241 308.485 713.895 306.216 713.895 303.395C714.033 302.077 714.094 300.743 714.094 299.394C714.094 277.397 696.249 259.554 674.235 259.554Z" fill="#EAE0FF"/>
<path d="M301.704 52.6098C298.714 52.6098 295.801 52.947 292.996 53.5755C284.564 32.2833 263.776 17.23 239.477 17.23C215.178 17.23 194.405 32.2833 185.958 53.5755C183.153 52.947 180.24 52.6098 177.25 52.6098C155.236 52.6098 137.406 70.4529 137.406 92.4503C137.406 93.7073 137.468 94.9337 137.59 96.16C137.483 96.252 137.406 96.3593 137.406 96.4512C137.406 99.2565 183.061 101.541 239.385 101.541C295.709 101.541 341.364 99.2718 341.364 96.4512C341.502 95.1329 341.563 93.7993 341.563 92.4503C341.563 70.4529 323.718 52.6098 301.704 52.6098Z" fill="#EAE0FF"/>
<path d="M154.102 554.365H523.169L474.204 274.699H75.625L119.516 525.301C122.444 542.117 137.039 554.365 154.102 554.365Z" fill="#D5D1DE"/>
<path d="M75.625 274.699L120.697 532.045H130.248L85.1759 274.699H75.625Z" fill="#8A91E6"/>
<path d="M681.825 554.365H150.99C135.736 554.365 122.69 543.404 120.053 528.382L118.045 516.885H699.517V536.69C699.501 546.455 691.591 554.365 681.825 554.365Z" fill="#D5D1DE"/>
<path d="M324.302 536.69V516.885H118.029L121.525 536.874C123.303 546.991 132.087 554.38 142.359 554.38H341.978C332.227 554.365 324.302 546.455 324.302 536.69Z" fill="#8A91E6"/>
<path d="M119.056 522.725H699.501V516.885H118.029L119.056 522.725Z" fill="#8A91E6"/>
<path d="M501.292 503.625L463.502 287.836H102.346L140.12 503.625H501.292Z" fill="#7B8DFF"/>
<path d="M289.364 282.21L289.088 280.631C288.919 279.635 288.045 278.899 287.033 278.899H281.652C280.349 278.899 279.368 280.064 279.598 281.352L279.874 282.931C280.043 283.927 280.916 284.663 281.928 284.663H287.309C288.597 284.648 289.578 283.483 289.364 282.21Z" fill="#7E72AC"/>
<path d="M182.188 532.045H157.613L158.87 539.219H183.445L182.188 532.045Z" fill="#7E72AC"/>
<path d="M216.221 532.045H191.646L192.904 539.219H217.478L216.221 532.045Z" fill="#7E72AC"/>
<path d="M501.522 497.493H151.618L118.289 304.944H468.193L501.522 497.493Z" fill="#310047"/>
<path d="M469.712 313.574H106.623L102.07 287.836H465.174L469.712 313.574Z" fill="#2A2E5E"/>
<path d="M491.664 457.438H436.888L414.49 330.436H469.266L491.664 457.438Z" fill="#39ACCC"/>
<path d="M459.915 305.679C459.731 305.679 459.547 305.617 459.409 305.495L451.069 298.413C450.732 298.137 450.701 297.631 450.977 297.294C451.269 296.956 451.759 296.926 452.096 297.202L460.436 304.284C460.773 304.56 460.804 305.066 460.528 305.403C460.36 305.587 460.13 305.679 459.915 305.679Z" fill="#8A91E6"/>
<path d="M452.817 305.679C452.633 305.679 452.464 305.618 452.311 305.495C451.973 305.219 451.927 304.714 452.203 304.376L458.044 297.294C458.32 296.957 458.826 296.911 459.163 297.187C459.501 297.463 459.547 297.969 459.271 298.306L453.43 305.388C453.276 305.587 453.046 305.679 452.817 305.679Z" fill="#8A91E6"/>
<path d="M196.016 335.862H152.002L150.975 330.022H194.989L196.016 335.862Z" fill="#2A2E5E"/>
<path d="M199.878 357.737H155.864L151.74 334.376H195.754L199.878 357.737Z" fill="#FFA800"/>
<path d="M200.906 363.562H156.892L155.865 357.737H199.879L200.906 363.562Z" fill="#2A2E5E"/>
<path d="M204.753 385.437H160.755L156.631 362.091H200.645L204.753 385.437Z" fill="#FFA800"/>
<path d="M444.984 305.725H437.794C437.411 305.725 437.089 305.449 437.012 305.066L435.74 297.877C435.694 297.647 435.755 297.417 435.908 297.233C436.061 297.049 436.276 296.957 436.521 296.957H443.711C444.095 296.957 444.417 297.233 444.493 297.616L445.766 304.806C445.812 305.035 445.75 305.265 445.597 305.449C445.444 305.633 445.229 305.725 444.984 305.725ZM438.468 304.146H444.049L443.052 298.536H437.472L438.468 304.146Z" fill="#8A91E6"/>
<path d="M502.598 503.625H139.494L137.348 491.377H500.436L502.598 503.625Z" fill="#2A2E5E"/>
<path d="M154.485 491.377H137.345L106.623 313.574H123.763L154.485 491.377Z" fill="#2A2E5E"/>
<path d="M473.836 356.327H419.06L418.217 351.544H472.993L473.836 356.327Z" fill="#2A2E5E"/>
<path d="M478.389 382.218H423.628L422.785 377.435H477.546L478.389 382.218Z" fill="#2A2E5E"/>
<path d="M482.959 408.094H428.183L427.34 403.311H482.116L482.959 408.094Z" fill="#2A2E5E"/>
<path d="M487.525 433.985H432.749L431.906 429.202H486.682L487.525 433.985Z" fill="#2A2E5E"/>
<path d="M431.463 464.214H223.919L200.264 330.022H407.808L431.463 464.214Z" fill="white"/>
<path d="M163.92 545.466L155.604 543.831L164.842 524.069L171.923 528.087L163.92 545.466Z" fill="#D5D1DE"/>
<path d="M186.938 555.887C186.869 553.417 185.929 546.232 180.71 546.232L172.045 546.11L170.219 539.934C169.592 537.882 167.522 537.69 167.087 538.577C165.608 541.657 165.191 543.083 163.416 543.17L156.787 543.083C153.899 543.083 154.056 544.771 154.038 546.91C154.038 546.91 153.969 554.165 153.969 555.904H186.938V555.887Z" fill="#2A2E5E"/>
<path d="M177.924 555.887H186.936C186.866 553.417 185.927 546.232 180.708 546.232L177.924 546.197V555.887V555.887Z" fill="#373C7A"/>
<path d="M187.112 558.114H154.143L153.986 555.748H186.956L187.112 558.114Z" fill="#373C7A"/>
<path d="M156.666 531.01L171.924 534.785C218.359 446.793 151.742 464.155 106.211 501.54C110.787 505.663 115.345 509.803 119.921 513.926C137.127 498.235 163.433 483.726 170.897 489.084C175.386 492.302 168.966 507.298 156.666 531.01Z" fill="#2A2E5E"/>
<path d="M141.928 481.43C139.301 481.43 136.726 480.96 134.256 479.933C122.634 475.115 117.275 459.788 118.302 434.354C118.389 432.075 120.32 430.301 122.616 430.388C124.895 430.475 126.687 432.406 126.583 434.702C125.731 455.683 129.576 469.026 137.422 472.279C144.973 475.41 157.517 469.426 168.634 457.387C170.183 455.7 172.81 455.596 174.498 457.161C176.185 458.71 176.29 461.336 174.724 463.024C165.885 472.592 153.411 481.43 141.928 481.43Z" fill="#FE9B88"/>
<path d="M81.7473 473.01L81.4863 430.353L215.226 430.458L215.487 473.097L81.7473 473.01Z" fill="#D5D1DE"/>
<path d="M92.7595 472.949L92.4961 430.293L33.3772 430.658L33.6407 473.314L92.7595 472.949Z" fill="#D5D1DE"/>
<path d="M256.095 449.768L215.227 430.457L215.488 473.097L256.095 455.578V449.768Z" fill="#8A91E6"/>
<path d="M214.028 430.614C222.71 430.562 222.971 472.836 214.289 472.888C205.59 472.957 205.329 430.666 214.028 430.614Z" fill="#D5D1DE"/>
<path d="M249.779 446.775C250.301 451.455 250.319 453.543 249.901 458.257L257.956 455.317C259.992 454.204 260.044 451.299 258.061 450.098L249.779 446.775Z" fill="#7E72AC"/>
<path d="M33.3822 430.666C42.0639 430.614 42.3249 473.253 33.6432 473.323C24.9615 473.358 24.7006 430.718 33.3822 430.666Z" fill="#8A91E6"/>
<path d="M164.878 436.372H145.288C143.566 436.372 142.174 437.764 142.174 439.486C142.174 441.209 143.566 442.6 145.288 442.6H164.878V436.372Z" fill="#7E72AC"/>
<path d="M188.607 436.372H168.965V442.6H188.607C190.33 442.6 191.722 441.209 191.722 439.486C191.722 437.781 190.33 436.372 188.607 436.372Z" fill="#7E72AC"/>
<path d="M164.878 434.25H145.288C143.566 434.25 142.174 435.642 142.174 437.364C142.174 439.086 143.566 440.478 145.288 440.478H164.878V434.25Z" fill="#8A91E6"/>
<path d="M188.607 434.25H168.965V440.478H188.607C190.33 440.478 191.722 439.086 191.722 437.364C191.722 435.642 190.33 434.25 188.607 434.25Z" fill="#8A91E6"/>
<path d="M33.4692 444.166C36.653 444.149 36.7574 459.788 33.5735 459.806C30.3897 459.823 30.2853 444.183 33.4692 444.166Z" fill="#7E72AC"/>
<g opacity="0.05">
<path opacity="0.05" d="M259.404 453.491C259.735 452.273 259.282 450.864 258.047 450.116L249.783 446.793L215.23 430.475V430.927V430.475L92.5211 430.388V430.318L81.5081 430.388L33.4022 430.684C28.8613 430.718 26.7735 442.392 27.0519 453.508H259.404V453.491Z" fill="black"/>
</g>
<g opacity="0.1">
<path opacity="0.1" d="M31.8848 649.968C31.8848 654.926 64.4019 658.927 104.522 658.927C144.642 658.927 177.159 654.909 177.159 649.968C177.159 645.01 144.642 641.009 104.522 641.009C64.4019 641.009 31.8848 645.027 31.8848 649.968Z" fill="black"/>
</g>
<path d="M91.4747 637.721H80.9141V630.675C80.9141 629.179 82.1145 627.979 83.6108 627.979H88.778C90.2743 627.979 91.4747 629.179 91.4747 630.675V637.721V637.721Z" fill="#363A68"/>
<path d="M88.3752 615.523H79.3281V634.937H88.3752V615.523Z" fill="#D5D1DE"/>
<path d="M93.8938 645.271H77.0176V637.442C77.0176 636.051 78.1485 634.92 79.5403 634.92H88.6395C91.545 634.92 93.8938 637.268 93.8938 640.174V645.271Z" fill="#2A2E5E"/>
<path d="M77.0176 645.271H93.8938L94.0678 648.263H77.1916L77.0176 645.271Z" fill="#373C7A"/>
<path d="M89.9267 625.23C84.8987 625.23 82.1498 625.23 77.1391 625.23L75.1035 500.392C80.1316 500.392 87.6128 500.392 92.6234 500.392L89.9267 625.23Z" fill="#2A2E5E"/>
<path d="M76.5116 514.222C87.7682 518.015 123.608 514.448 123.748 514.396L125.192 492.529C125.192 492.529 83.9754 482.821 74.0411 491.537C70.6658 494.494 72.0403 512.709 76.5116 514.222Z" fill="#2A2E5E"/>
<path d="M125.192 492.529L74.0418 491.537L72.041 427.535C72.041 416.61 80.8967 407.755 91.8227 407.755H109.551C120.477 407.755 127.732 415.009 127.732 425.934L125.192 492.529Z" fill="#8A91E6"/>
<path d="M139.686 481.273C139.512 481.273 139.32 481.256 139.146 481.238C136.136 480.855 133.387 479.812 130.934 478.159C128.203 476.298 125.871 473.688 124.01 470.365C119.573 462.485 117.659 450.377 118.303 434.372C118.39 432.093 120.287 430.318 122.618 430.405C124.897 430.492 126.689 432.423 126.585 434.72C125.993 449.159 127.559 459.788 131.23 466.312C132.465 468.504 133.927 470.174 135.58 471.305C136.971 472.244 138.485 472.801 140.207 473.027C142.469 473.323 144.07 475.393 143.792 477.672C143.531 479.742 141.739 481.273 139.686 481.273Z" fill="#FE9B88"/>
<path d="M128.376 445.923C128.376 445.923 117.154 446.393 111.291 445.854C109.221 440.269 109.221 433.798 110.682 428.022C112.144 422.246 115.397 416.94 119.868 413.009C121.138 411.895 130.673 436.529 128.376 445.923Z" fill="#8A91E6"/>
<path d="M115.812 389.402H113.828V380.268H116.438L118.369 385.592C118.995 387.297 117.882 389.228 116.072 389.384C115.985 389.384 115.898 389.402 115.812 389.402Z" fill="#FE8D77"/>
<path d="M108.438 405.006H98.6777V371.187C98.6777 371.187 116.232 371.187 116.459 371.187C116.754 371.187 116.911 394.429 116.911 394.429C116.894 402.223 113.414 405.006 108.438 405.006Z" fill="#FE9B88"/>
<path d="M116.824 378.268H116.006C115.71 378.268 115.467 378.024 115.467 377.728C115.467 377.433 115.71 377.189 116.006 377.189H116.824C117.12 377.189 117.363 377.433 117.363 377.728C117.363 378.024 117.137 378.268 116.824 378.268Z" fill="#310047"/>
<path d="M112.665 356H95.7364C95.371 356 95.023 356.035 94.6577 356.07C94.2053 356.035 93.7356 356 93.2658 356C83.5751 356 75.7285 363.846 75.7285 373.536V415.305C75.7285 424.995 83.5751 432.841 93.2658 432.841C102.957 432.841 110.803 424.995 110.803 415.305V376.511C110.803 375.328 111.76 374.371 112.943 374.371C118.476 374.371 122.86 369.5 122.042 363.811C121.399 359.271 117.275 356 112.665 356Z" fill="#373C7A"/>
<path d="M511.422 607.176L511.324 615.407L529.014 615.617L529.112 607.386L511.422 607.176Z" fill="#D5D1DE"/>
<path d="M500.996 595.407C501.594 595.484 510.332 591.361 510.271 596.113L510.286 601.462L515.897 603.195C517.032 603.547 517.752 604.329 517.768 605.187L517.783 606.46C517.783 606.766 517.599 606.889 517.246 606.904C514.288 607.073 512.877 607.318 512.877 608.897V615.381C512.847 618.018 511.314 617.849 509.367 617.849C509.367 617.849 502.759 617.834 501.18 617.803L500.996 595.407Z" fill="#373C7A"/>
<path d="M501.303 617.819L501.564 596.021L510.272 596.128V593.583C510.333 588.923 504.017 587.942 501.656 587.82V587.804L499.356 587.774L499.004 617.803L501.303 617.819Z" fill="#2A2E5E"/>
<path d="M524.975 628.709L530.027 635.208L543.995 624.352L538.942 617.853L524.975 628.709Z" fill="#D5D1DE"/>
<path d="M509.535 626.005C510.041 625.698 514.318 617.022 517.231 620.777L520.573 624.947L526.046 622.801C527.15 622.372 528.208 622.525 528.744 623.199L529.557 624.18C529.756 624.426 529.68 624.625 529.419 624.855C527.211 626.817 526.261 627.905 527.242 629.132L531.289 634.206C532.899 636.29 531.596 637.103 530.078 638.314C530.078 638.314 524.896 642.422 523.639 643.388L509.535 626.005Z" fill="#373C7A"/>
<path d="M523.732 643.342L510.348 626.127L517.232 620.777L515.637 618.785C512.77 615.106 507.221 618.263 505.305 619.643L505.289 619.628L503.465 621.038L521.892 644.737L523.732 643.342Z" fill="#2A2E5E"/>
<path d="M635.551 609.388H679.028L680.546 587.298L636.072 594.043L635.551 609.388Z" fill="#373C7A"/>
<path d="M647.281 618.003C647.971 618.217 646.668 606 655.682 601.953C598.959 560.84 604.862 560.319 542.957 610.031L553.504 622.724C609.43 578.423 592.383 582.929 647.281 618.003Z" fill="#373C7A"/>
<path d="M570.688 537.341C569.384 537.341 568.112 536.651 567.407 535.44L565.613 532.313C564.571 530.504 565.199 528.204 567.008 527.162C568.817 526.12 571.117 526.748 572.159 528.557L573.953 531.699C574.98 533.508 574.352 535.808 572.543 536.85C571.975 537.187 571.331 537.341 570.688 537.341Z" fill="#FE9B88"/>
<path d="M668.098 618.202H525.34V602.873L683.244 599.807V602.873C683.229 611.243 676.453 618.202 668.098 618.202Z" fill="#2A2E5E"/>
<path d="M610.347 573.012C593.346 567.999 571.346 586.869 533.449 617.313L543.997 630.005C577.08 603.793 594.127 587.39 606.146 591.575L610.347 573.012Z" fill="#373C7A"/>
<path d="M683.23 604.406L637.238 607.472V584.478H683.23V604.406Z" fill="#2A2E5E"/>
<path d="M662.303 543.932C649.809 544.039 639.599 533.999 639.492 521.505L639.216 489.207C639.108 476.714 649.15 466.504 661.629 466.397C674.123 466.29 684.333 476.33 684.441 488.808L684.717 521.107C684.839 533.616 674.798 543.825 662.303 543.932Z" fill="#0E3266"/>
<path d="M623.502 550.57C622.597 550.57 621.769 550.508 621.018 550.416C606.73 548.623 594.711 532.803 592.473 519.145L599.678 517.964C601.456 528.772 611.36 541.847 621.938 543.181C631.412 544.377 637.544 535.179 641.009 527.254L647.693 530.182C640.197 547.289 630.124 550.57 623.502 550.57Z" fill="#FE8D77"/>
<path d="M654.117 533.876C652.016 540.912 649.134 544.085 643.63 548.929C635.72 546.446 633.359 543.702 632.117 538.322C634.539 534.06 636.594 529.569 638.249 524.954C644.796 526.809 648.49 530.059 654.117 533.876Z" fill="#2A95AD"/>
<path d="M687.828 593.675C687.828 593.675 663.299 599.807 637.237 589.077L636.762 531.224C636.93 521.276 645.148 513.35 655.097 513.519L671.24 513.795C681.19 513.964 689.115 522.18 688.947 532.129L687.828 593.675Z" fill="#39ACCC"/>
<path d="M663.085 497.807L669.217 497.914L668.88 516.738C668.819 520.34 665.844 523.192 662.257 523.13C658.654 523.069 655.803 520.095 655.864 516.508L656.033 507.311L663.085 497.807Z" fill="#FE8D77"/>
<path d="M644.213 487.965L644.412 496.825C642.695 496.396 640.993 494.848 641.024 493.162L641.054 491.414C641.085 489.728 642.496 488.348 644.213 487.965Z" fill="#FE8D77"/>
<path d="M644.168 500.443L643.969 487.291C644.107 480.76 645.9 476.898 651.588 477.112L669.755 477.388L669.709 498.895C669.433 515.358 644.49 515.558 644.168 500.443Z" fill="#FE9B88"/>
<path d="M649.685 492.564C649.67 493.284 649.087 493.852 648.367 493.836C647.646 493.821 647.079 493.238 647.094 492.518C647.109 491.797 647.692 491.23 648.413 491.246C649.118 491.261 649.685 491.843 649.685 492.564Z" fill="#082951"/>
<path d="M659.865 492.717C659.849 493.438 659.267 494.005 658.546 493.99C657.826 493.974 657.258 493.392 657.274 492.671C657.289 491.951 657.872 491.384 658.592 491.399C659.313 491.414 659.88 491.997 659.865 492.717Z" fill="#082951"/>
<path d="M660.724 497.331C660.034 500.98 656.523 503.693 652.997 503.647C649.471 503.601 647.126 500.796 646.543 497.117L660.724 497.331Z" fill="#EFF4DF"/>
<path d="M653.134 496.764C652.398 496.749 651.509 496.657 651.126 496.059C650.651 495.323 651.08 494.281 651.801 492.564C651.969 492.15 652.153 491.706 652.352 491.215C652.444 490.985 652.705 490.878 652.935 490.97C653.165 491.062 653.272 491.322 653.18 491.552C652.981 492.043 652.797 492.503 652.613 492.917C652.092 494.158 651.632 495.247 651.862 495.568C651.923 495.676 652.184 495.86 653.134 495.875C653.38 495.875 653.579 496.09 653.579 496.335C653.579 496.565 653.38 496.764 653.134 496.764Z" fill="#FE8D77"/>
<path d="M670.979 488.226L669.599 488.21L669.461 497.255L670.841 497.27C672.864 497.301 674.52 495.691 674.551 493.668L674.581 491.92C674.597 489.912 672.987 488.256 670.979 488.226Z" fill="#FE9B88"/>
<path d="M668.879 485.129L656.048 484.455C653.533 484.302 651.617 482.155 651.77 479.641C651.924 477.127 651.878 471.854 654.376 471.992L664.157 475.794C666.672 475.947 668.588 478.093 668.435 480.607C668.297 483.136 671.393 485.283 668.879 485.129Z" fill="#0E3266"/>
<path d="M659.879 489.13C659.879 489.13 659.863 489.13 659.848 489.13L657.441 488.992C657.196 488.977 657.012 488.762 657.012 488.517C657.027 488.272 657.196 488.088 657.487 488.088L659.894 488.226C660.139 488.241 660.323 488.456 660.323 488.701C660.308 488.946 660.109 489.13 659.879 489.13Z" fill="#0E3266"/>
<path d="M649.347 488.762C649.347 488.762 649.332 488.762 649.317 488.762L646.91 488.624C646.664 488.609 646.48 488.394 646.48 488.149C646.496 487.904 646.68 487.751 646.956 487.72L649.363 487.858C649.608 487.873 649.792 488.088 649.792 488.333C649.777 488.578 649.577 488.762 649.347 488.762Z" fill="#0E3266"/>
<path d="M666.458 476.284L666.259 489.897C666.213 492.671 668.435 494.971 671.21 495.001C673.97 495.047 676.837 495.691 676.867 492.932L676.407 481.45C676.453 478.676 674.23 476.376 671.456 476.346L666.458 476.284Z" fill="#0E3266"/>
<path d="M661.581 528.603C669.584 528.741 676.252 522.716 677.08 514.914C675.256 514.255 673.294 513.856 671.224 513.81L655.081 513.534C652.061 513.488 649.209 514.178 646.68 515.45C647.737 522.762 653.962 528.465 661.581 528.603Z" fill="#FE8D77"/>
<path d="M641.752 471.297L494.297 430L461.001 548.866L608.456 590.163L641.752 471.297Z" fill="#8A91E6"/>
<path d="M630.436 478.604L500.148 442.114L472.293 541.556L602.581 578.045L630.436 478.604Z" fill="white"/>
<path d="M611.866 545.036L593.562 482.723L537.973 533.386L523.21 483.075L476.881 525.307L472.312 541.587L602.607 578.07L611.866 545.036Z" fill="#FFA800"/>
<path d="M631.212 578.76C622.657 578.76 613.168 577.212 602.773 574.13C600.78 573.533 599.631 571.433 600.229 569.44C600.826 567.447 602.927 566.297 604.92 566.895C626.704 573.379 643.829 572.567 655.786 564.488C670.243 554.739 673.371 537.065 674.045 529.921C674.244 527.852 676.053 526.319 678.154 526.518C680.223 526.717 681.756 528.557 681.557 530.626C680.775 538.843 677.127 559.184 660.002 570.743C652.107 576.093 642.48 578.76 631.212 578.76Z" fill="#FE9B88"/>
<path d="M678.387 518.026C678.142 518.225 666.215 545.358 666.215 545.342C667.871 550.202 674.279 552.976 679.154 552.348C684.106 551.704 686.313 527.821 686.865 525.828L678.387 518.026Z" fill="#39ACCC"/>
<path d="M359.759 234.353C352.875 234.353 331.642 230.336 325.74 182.555L332.992 181.666C337.161 215.421 349.579 227.209 359.943 227.056C370.444 226.872 379.673 215.222 380.961 200.536L388.227 201.165C386.602 219.821 374.491 234.092 360.065 234.353C359.958 234.353 359.866 234.353 359.759 234.353Z" fill="#FE8D77"/>
<path d="M318.29 181.804C316.665 188.963 319.041 195.846 321.464 202.774C326.247 204.2 334.372 201.027 336.242 198.666C334.587 194.604 335.69 188.334 336.564 182.816C329.957 181.222 325.082 181.252 318.29 181.804Z" fill="#CF8800"/>
<path d="M261.998 218.242C261.998 218.242 288.566 236.468 307.146 233.433L334.726 188.043C339.463 179.29 336.213 168.345 327.459 163.608L313.263 155.928C304.51 151.192 293.564 154.442 288.826 163.195L261.998 218.242Z" fill="#FFA800"/>
<path d="M329.082 144.386L323.257 141.228L313.568 159.117C311.713 162.535 312.985 166.812 316.404 168.652C319.822 170.507 324.1 169.234 325.939 165.816L330.677 157.078L329.082 144.386Z" fill="#FE8D77"/>
<path d="M349.394 149.506L344.596 157.584C346.405 158.075 348.781 157.538 349.639 155.959L350.529 154.334C351.372 152.755 350.789 150.747 349.394 149.506Z" fill="#FE8D77"/>
<path d="M342.941 161.048L349.977 149.015C353.258 142.914 353.611 138.407 348.245 135.648L331.32 126.435L320.159 146.302C311.85 161.646 334.769 174.829 342.941 161.048Z" fill="#FE9B88"/>
<path d="M341.96 150.885C341.592 151.544 341.837 152.387 342.512 152.74C343.171 153.108 344.014 152.863 344.367 152.188C344.735 151.529 344.49 150.686 343.815 150.333C343.156 149.981 342.328 150.226 341.96 150.885Z" fill="#082951"/>
<path d="M332.47 145.719C332.102 146.378 332.347 147.221 333.022 147.574C333.681 147.942 334.524 147.697 334.877 147.022C335.245 146.363 334.999 145.52 334.325 145.167C333.666 144.815 332.838 145.06 332.47 145.719Z" fill="#082951"/>
<path d="M329.281 149.536C328.008 153.261 329.833 157.599 333.113 159.393C336.394 161.171 340.027 159.807 342.465 156.726L329.281 149.536Z" fill="#EFF4DF"/>
<path d="M338.402 152.832C338.004 152.832 337.528 152.663 336.992 152.326C336.762 152.188 336.701 151.897 336.839 151.667C336.977 151.437 337.268 151.376 337.498 151.514C338.004 151.82 338.372 151.943 338.556 151.851C339.046 151.59 339.153 149.858 339.245 148.172C339.261 147.911 339.506 147.697 339.751 147.727C340.012 147.743 340.211 147.973 340.196 148.233C340.058 150.625 339.966 152.203 339 152.709C338.816 152.786 338.617 152.832 338.402 152.832Z" fill="#FE8D77"/>
<path d="M336.853 143.604C336.776 143.604 336.715 143.588 336.638 143.558L334.354 142.439C334.124 142.316 334.017 142.04 334.139 141.81C334.262 141.58 334.538 141.488 334.768 141.596L337.052 142.715C337.282 142.837 337.389 143.113 337.267 143.343C337.19 143.512 337.021 143.604 336.853 143.604Z" fill="#0E3266"/>
<path d="M346.757 148.754C346.68 148.754 346.619 148.739 346.542 148.708L344.258 147.589C344.028 147.467 343.921 147.191 344.043 146.961C344.166 146.731 344.442 146.624 344.672 146.746L346.956 147.865C347.186 147.988 347.294 148.264 347.171 148.494C347.11 148.647 346.941 148.754 346.757 148.754Z" fill="#0E3266"/>
<path d="M336.057 127.171L330.201 138.331C328.775 140.921 323.885 144.248 320.558 142.439C318.856 141.519 313.398 139.649 316.603 132.919C317.798 130.405 318.994 128.413 320.665 125.469C322.535 122.204 326.767 122.128 330.063 123.921L336.057 127.171Z" fill="#0E3266"/>
<path d="M325.202 136.154L326.735 136.982L322.152 145.397L320.619 144.57C318.38 143.359 317.415 140.845 318.426 138.974L319.315 137.35C320.327 135.464 322.964 134.927 325.202 136.154Z" fill="#FE9B88"/>
<path d="M356.475 129.547L339.796 120.227C336.163 118.203 331.471 119.077 329.095 122.511C327.194 125.255 327.255 128.673 328.865 131.264C328.85 131.294 328.819 131.31 328.804 131.34L323.162 140.906C322.564 141.918 323.009 143.267 324.159 143.941C325.308 144.6 326.719 144.324 327.301 143.328L331.195 136.721C331.931 135.479 333.526 135.035 334.798 135.74L348.442 143.359C352.152 145.428 356.966 144.447 359.281 140.875C361.81 136.951 360.477 131.785 356.475 129.547Z" fill="#0E3266"/>
<path d="M385.149 202.744C384.153 202.744 383.156 202.345 382.421 201.579C380.979 200.077 381.041 197.685 382.543 196.244L385.149 193.761C386.652 192.32 389.043 192.381 390.484 193.884C391.925 195.386 391.864 197.777 390.362 199.218L387.74 201.717C387.02 202.391 386.085 202.744 385.149 202.744Z" fill="#FE9B88"/>
<path d="M325.682 253.407L367.534 287.33L475.017 154.702L474.925 150.303L433.149 120.779L325.59 249.023L325.682 253.407Z" fill="#D5D1DE"/>
<path d="M325.565 249.034L367.436 282.953L474.904 150.314L433.034 116.395L325.565 249.034Z" fill="white"/>
<path d="M454.274 148.463C451.944 151.33 452.388 155.53 455.255 157.86C458.122 160.19 462.323 159.745 464.653 156.879C466.983 154.012 466.539 149.812 463.672 147.482C460.805 145.152 456.589 145.597 454.274 148.463Z" fill="#0E3266"/>
<path d="M459.441 161.094C457.525 161.094 455.67 160.435 454.152 159.209C452.405 157.799 451.316 155.775 451.071 153.537C450.841 151.299 451.485 149.107 452.911 147.359C455.839 143.757 461.158 143.19 464.761 146.118C466.509 147.528 467.597 149.552 467.843 151.79C468.073 154.028 467.429 156.22 466.003 157.967C464.592 159.715 462.569 160.803 460.331 161.048C460.039 161.079 459.748 161.094 459.441 161.094ZM455.624 149.552C454.796 150.579 454.413 151.866 454.551 153.169C454.689 154.488 455.333 155.653 456.36 156.496C457.387 157.323 458.675 157.707 459.978 157.569C461.296 157.431 462.462 156.787 463.305 155.76C464.133 154.733 464.516 153.445 464.378 152.142C464.24 150.824 463.596 149.659 462.569 148.816C460.453 147.114 457.341 147.436 455.624 149.552Z" fill="#373C7A"/>
<path d="M400.309 162.645L436.461 191.932L453.707 170.647L417.554 141.36L400.309 162.645Z" fill="#FFA800"/>
<path d="M433.288 194.527C433.088 194.527 432.889 194.466 432.72 194.328L410.89 176.638C410.506 176.332 410.445 175.764 410.752 175.381C411.058 174.998 411.626 174.937 412.009 175.243L433.855 192.933C434.238 193.24 434.299 193.807 433.993 194.19C433.809 194.42 433.548 194.527 433.288 194.527Z" fill="#A3CFD1"/>
<path d="M378.187 189.934L414.34 219.221L431.585 197.936L395.433 168.649L378.187 189.934Z" fill="#8A91E6"/>
<path d="M411.166 221.829C410.967 221.829 410.768 221.767 410.599 221.629L388.753 203.94C388.37 203.633 388.308 203.066 388.615 202.683C388.922 202.299 389.489 202.238 389.872 202.545L411.718 220.234C412.101 220.541 412.163 221.108 411.856 221.491C411.687 221.706 411.427 221.829 411.166 221.829Z" fill="#A3CFD1"/>
<path d="M356.078 217.232L392.23 246.518L409.476 225.234L373.324 195.947L356.078 217.232Z" fill="#373C7A"/>
<path d="M389.057 249.115C388.858 249.115 388.659 249.053 388.49 248.915L366.659 231.225C366.276 230.919 366.215 230.352 366.521 229.968C366.828 229.585 367.395 229.524 367.778 229.83L389.609 247.52C389.992 247.827 390.054 248.394 389.747 248.777C389.578 248.992 389.318 249.115 389.057 249.115Z" fill="#A3CFD1"/>
<path d="M333.967 244.509L370.119 273.796L387.365 252.512L351.212 223.225L333.967 244.509Z" fill="#39ACCC"/>
<path d="M366.952 276.401C366.752 276.401 366.553 276.339 366.384 276.201L344.554 258.511C344.171 258.205 344.109 257.638 344.416 257.254C344.722 256.871 345.29 256.81 345.673 257.116L367.504 274.806C367.887 275.113 367.948 275.68 367.642 276.063C367.473 276.293 367.212 276.401 366.952 276.401Z" fill="#A3CFD1"/>
<path d="M225.108 586.927L225.905 640.795L396.598 638.255L399.916 635.364L395.792 584.375L228.414 584.046L225.108 586.927Z" fill="#D5D1DE"/>
<path d="M228.391 584.034L229.203 637.913L399.896 635.357L399.084 581.478L228.391 584.034Z" fill="white"/>
<path d="M388.09 618.337C384.396 618.386 381.457 621.42 381.507 625.114C381.557 628.808 384.591 631.747 388.285 631.697C391.979 631.648 394.917 628.614 394.867 624.92C394.818 621.226 391.774 618.276 388.09 618.337Z" fill="#0E3266"/>
<path d="M381.707 630.4C380.478 628.929 379.795 627.083 379.763 625.132C379.725 622.886 380.58 620.754 382.14 619.131C383.711 617.52 385.806 616.608 388.061 616.582C392.703 616.52 396.549 620.239 396.611 624.881C396.649 627.126 395.794 629.259 394.234 630.882C392.664 632.493 390.569 633.404 388.313 633.431C386.068 633.469 383.935 632.613 382.312 631.053C382.102 630.849 381.903 630.635 381.707 630.4ZM388.118 620.07C386.799 620.093 385.565 620.625 384.654 621.566C383.731 622.517 383.249 623.758 383.261 625.087C383.284 626.406 383.815 627.64 384.757 628.551C385.708 629.475 386.949 629.956 388.278 629.945C389.597 629.922 390.831 629.39 391.742 628.449C392.665 627.498 393.147 626.257 393.135 624.928C393.085 622.214 390.843 620.032 388.118 620.07Z" fill="#373C7A"/>
<path d="M342.608 586.012L343.309 632.533L370.7 632.123L369.999 585.602L342.608 586.012Z" fill="#FFA800"/>
<path d="M339.282 631.761C339.154 631.608 339.073 631.416 339.071 631.198L338.651 603.103C338.641 602.612 339.037 602.202 339.528 602.191C340.018 602.181 340.429 602.577 340.44 603.068L340.869 631.174C340.879 631.665 340.483 632.076 339.992 632.086C339.698 632.092 339.449 631.961 339.282 631.761Z" fill="#A3CFD1"/>
<path d="M307.483 586.53L308.184 633.051L335.575 632.641L334.874 586.12L307.483 586.53Z" fill="#8A91E6"/>
<path d="M304.149 632.287C304.021 632.134 303.94 631.942 303.938 631.724L303.509 603.618C303.498 603.127 303.894 602.716 304.385 602.706C304.876 602.695 305.286 603.091 305.297 603.582L305.726 631.689C305.737 632.18 305.341 632.59 304.85 632.601C304.577 632.609 304.316 632.487 304.149 632.287Z" fill="#A3CFD1"/>
<path d="M272.36 587.063L273.061 633.585L300.452 633.174L299.751 586.653L272.36 587.063Z" fill="#373C7A"/>
<path d="M269.034 632.813C268.906 632.66 268.825 632.468 268.823 632.25L268.403 604.155C268.393 603.664 268.789 603.253 269.28 603.243C269.77 603.233 270.181 603.629 270.191 604.119L270.611 632.214C270.621 632.705 270.225 633.116 269.735 633.126C269.462 633.134 269.201 633.013 269.034 632.813Z" fill="#A3CFD1"/>
<path d="M237.248 587.581L237.949 634.102L265.34 633.692L264.64 587.171L237.248 587.581Z" fill="#39ACCC"/>
<path d="M233.92 633.341C233.792 633.188 233.712 632.996 233.71 632.778L233.29 604.683C233.28 604.192 233.676 603.781 234.166 603.771C234.657 603.761 235.068 604.157 235.078 604.647L235.498 632.742C235.508 633.233 235.112 633.644 234.621 633.654C234.337 633.672 234.087 633.541 233.92 633.341Z" fill="#A3CFD1"/>
<path d="M344.062 242.186C343.786 242.186 343.495 242.155 343.219 242.094C318.751 236.514 302.531 226.06 295.019 211.022C285.791 192.55 292.613 173.036 295.97 165.494C296.813 163.593 299.051 162.735 300.952 163.578C302.853 164.421 303.712 166.659 302.869 168.56C299.941 175.105 293.992 192.044 301.78 207.634C308.234 220.541 322.737 229.662 344.905 234.72C346.944 235.18 348.201 237.204 347.741 239.243C347.343 240.99 345.794 242.186 344.062 242.186Z" fill="#FE9B88"/>
<path d="M304.953 156.082C305.061 156.373 304.8 187.936 304.8 187.936C300.968 191.354 290.205 192.335 286.266 189.377C282.264 186.372 293.226 160.711 293.732 158.703L304.953 156.082Z" fill="#FFA800"/>
<path d="M325.515 411.04C336.567 398.971 333.858 378.504 319.465 365.326C305.072 352.148 284.445 351.249 273.393 363.318C262.34 375.388 265.049 395.854 279.442 409.032C293.835 422.21 314.462 423.109 325.515 411.04Z" fill="#4929CF"/>
<path d="M385.946 443.673L326.203 355.331L297.611 443.673H385.946Z" fill="#FFA800"/>
<path d="M331.813 387.2C330.541 380.011 327.015 373.358 322.093 367.992L305.398 419.56C323.151 419.407 334.956 404.982 331.813 387.2Z" fill="#8A91E6"/>
<path d="M264.45 351.514L261.369 355.254L256.969 351.514L260.05 347.773L264.45 351.514Z" fill="#401671"/>
<path d="M270.721 387.047L267.64 390.787L263.24 387.047L266.322 383.306L270.721 387.047Z" fill="#401671"/>
<path d="M276.977 422.58L273.896 426.32L269.496 422.58L272.578 418.839L276.977 422.58Z" fill="#401671"/>
<path d="M272.991 421.599C272.5 421.599 272.056 421.246 271.964 420.74L260.19 354.012C260.098 353.445 260.466 352.909 261.033 352.801C261.585 352.694 262.137 353.077 262.244 353.644L274.018 420.372C274.11 420.939 273.742 421.476 273.175 421.583C273.113 421.599 273.052 421.599 272.991 421.599Z" fill="#401671"/>
<path d="M382.588 365.647H368.423L365.924 351.483H380.089L382.588 365.647Z" fill="#4929CF"/>
<path d="M399.36 365.647H385.194L382.695 351.483H396.861L399.36 365.647Z" fill="#FFA800"/>
<path d="M385.623 382.908H371.458L368.959 368.744H383.124L385.623 382.908Z" fill="#FFA800"/>
<path d="M402.41 382.908H388.245L385.746 368.744H399.911L402.41 382.908Z" fill="#4929CF"/>
<path d="M388.674 400.184H374.509L372.01 386.02H386.175L388.674 400.184Z" fill="#4929CF"/>
<path d="M405.446 400.184H391.28L388.781 386.02H402.947L405.446 400.184Z" fill="#FFA800"/>
<path d="M409.602 408.431H372.471L371.582 403.388H408.713L409.602 408.431Z" fill="#24004D"/>
</g>
<defs>
<clipPath id="clip0_534_1310">
<rect width="737" height="685" fill="white"/>
</clipPath>
</defs>
</svg>
